<?xml version="1.0" encoding="UTF-8"?>
<svg version="1.1" xmlns="http://www.w3.org/2000/svg" width="1088" height="1088">
<path d="M0 0 C1.63296524 -0.00101212 1.63296524 -0.00101212 3.29891968 -0.00204468 C37.90221947 0.0319396 73.52957624 3.23902541 106.5625 14.25 C103.81028999 25.46383222 100.87276397 36.61658624 97.8125 47.75 C97.39697354 49.26688275 96.98160832 50.78380968 96.56640625 52.30078125 C95.56695046 55.95102959 94.56535558 59.60068432 93.5625 63.25 C90.13413991 64.40773811 87.90858105 64.07177645 84.43359375 63.17578125 C83.41144775 62.92207764 82.38930176 62.66837402 81.33618164 62.40698242 C79.68477173 61.98896362 79.68477173 61.98896362 78 61.5625 C68.42330347 59.24081515 58.878117 57.34986079 49.125 55.9375 C48.03179443 55.77870361 46.93858887 55.61990723 45.81225586 55.45629883 C35.44614761 54.00858941 25.18786595 53.09650941 14.71875 53.046875 C13.71985245 53.03977005 12.7209549 53.0326651 11.69178772 53.02534485 C-19.49711855 52.77418408 -19.49711855 52.77418408 -50.4375 56.25 C-52.38438721 56.58862061 -52.38438721 56.58862061 -54.37060547 56.93408203 C-132.43729075 70.80563352 -209.82501235 110.9897865 -259.4375 174.25 C-260.35427923 175.36793335 -261.27370248 176.48370199 -262.1953125 177.59765625 C-307.48613977 232.65195497 -337.30245106 306.3887714 -337.640625 378.12890625 C-337.64763931 379.13090057 -337.65465363 380.1328949 -337.66188049 381.16525269 C-337.67928511 384.38104807 -337.68573287 387.59665924 -337.6875 390.8125 C-337.68817474 391.91191925 -337.68884949 393.0113385 -337.68954468 394.14407349 C-337.67369157 410.3905409 -337.22579435 426.20846658 -334.4375 442.25 C-334.26589355 443.28914551 -334.09428711 444.32829102 -333.91748047 445.39892578 C-324.73802562 500.18854057 -303.21845581 552.05710575 -269.4375 596.25 C-268.76702637 597.13679443 -268.76702637 597.13679443 -268.08300781 598.04150391 C-261.75592858 606.3933396 -254.99468137 614.16876525 -247.80273438 621.78320312 C-245.83800613 623.89409141 -243.95636112 626.07556686 -242.0625 628.25 C-233.13838579 638.19262724 -222.93377545 647.01655796 -212.4375 655.25 C-211.84163086 655.72373047 -211.24576172 656.19746094 -210.63183594 656.68554688 C-140.3762814 712.42607189 -50.9076834 738.03863428 38.18945312 728.72631836 C121.45525327 718.97094859 204.60541265 678.12613368 258.375 612.625 C259.77404335 610.83583879 261.16968122 609.04401114 262.5625 607.25 C263.48647097 606.12374152 264.41377752 605.00021428 265.34375 603.87890625 C273.12247319 594.44653861 280.00175066 584.56177108 286.5625 574.25 C286.96033691 573.62689941 287.35817383 573.00379883 287.76806641 572.36181641 C335.73587751 496.5739224 351.02582728 403.56808434 331.5625 316.25 C322.31300604 276.17287666 306.58681752 235.79471878 282.07421875 202.48046875 C280.5625 200.25 280.5625 200.25 280.5625 198.25 C281.91333008 197.12768555 281.91333008 197.12768555 283.83203125 195.88671875 C284.5472998 195.41806396 285.26256836 194.94940918 285.99951172 194.46655273 C286.78342285 193.96196533 287.56733398 193.45737793 288.375 192.9375 C290.02026716 191.86049837 291.66477247 190.78233218 293.30859375 189.703125 C294.59805908 188.85911133 294.59805908 188.85911133 295.91357422 187.99804688 C300.28879928 185.11080158 304.61394646 182.15134496 308.9375 179.1875 C309.73905518 178.63989014 310.54061035 178.09228027 311.36645508 177.52807617 C315.57512686 174.66538111 315.57512686 174.66538111 319.61962891 171.58032227 C321.5625 170.25 321.5625 170.25 324.5625 170.25 C326.34862243 172.56822511 327.89712337 174.83541531 329.4375 177.3125 C329.91654785 178.07127441 330.3955957 178.83004883 330.88916016 179.61181641 C365.12877062 234.48115033 385.86766912 294.87048334 391.5625 359.25 C391.63162598 359.9522168 391.70075195 360.65443359 391.77197266 361.37792969 C396.74304515 412.295353 388.89391967 464.74523185 373.5625 513.25 C373.17505615 514.4862915 373.17505615 514.4862915 372.77978516 515.74755859 C360.25866745 555.0961963 340.38128092 592.3504942 315.5625 625.25 C315.1195459 625.84458008 314.6765918 626.43916016 314.22021484 627.05175781 C298.05861623 648.74542879 279.34428962 669.88548362 258.5625 687.25 C257.22638672 688.41982422 257.22638672 688.41982422 255.86328125 689.61328125 C237.64279944 705.48718585 217.49842815 719.21813016 196.5625 731.25 C195.78084473 731.70101074 194.99918945 732.15202148 194.19384766 732.61669922 C105.34412587 783.49380382 -2.45544401 796.43941034 -104.4375 769.25 C-105.43894043 768.97961914 -106.44038086 768.70923828 -107.47216797 768.43066406 C-160.02642697 753.96651395 -208.72317763 727.09549766 -250.4375 692.25 C-250.94420731 691.82870316 -251.45091461 691.40740631 -251.97297668 690.9733429 C-260.70382924 683.6934688 -268.95338869 676.05195703 -276.9621582 667.98608398 C-278.75965805 666.17778392 -280.56772316 664.38054023 -282.37695312 662.58398438 C-289.18892421 655.78020515 -295.48901407 648.83067834 -301.4375 641.25 C-302.46194313 639.99502245 -303.48895715 638.74213526 -304.51953125 637.4921875 C-348.14297584 583.92063132 -375.86123588 519.10433671 -386.6875 451 C-386.91433472 449.58521362 -386.91433472 449.58521362 -387.14575195 448.1418457 C-389.932616 429.40171923 -390.81961573 410.61153368 -390.75 391.6875 C-390.74817719 390.64750854 -390.74635437 389.60751709 -390.74447632 388.53601074 C-390.69382332 371.27175372 -389.97426801 354.35152872 -387.4375 337.25 C-387.26589355 336.09274414 -387.09428711 334.93548828 -386.91748047 333.74316406 C-381.4564877 298.28331288 -371.75818392 263.50231963 -356.66992188 230.91308594 C-355.45416188 228.28600392 -354.26532483 225.64789997 -353.078125 223.0078125 C-338.73844753 191.57785743 -319.20977337 162.20066949 -296.4375 136.25 C-295.82777344 135.54101562 -295.21804688 134.83203125 -294.58984375 134.1015625 C-283.35105075 121.0826297 -271.59983486 108.35047549 -258.4375 97.25 C-257.55449219 96.47785156 -256.67148437 95.70570313 -255.76171875 94.91015625 C-194.65218362 41.78011427 -116.91932496 9.04433045 -36.4375 1.25 C-35.07830444 1.10860596 -35.07830444 1.10860596 -33.69165039 0.96435547 C-22.48765398 -0.0643107 -11.241554 0.00626685 0 0 Z " fill="#00EB00" transform="translate(541.4375,150.75)"/>
<path d="M0 0 C4.35652781 0.66971629 8.18158085 2.209072 12.1953125 3.95703125 C12.89281616 4.25633545 13.59031982 4.55563965 14.30895996 4.86401367 C16.58321666 5.84172916 18.85423267 6.8267103 21.125 7.8125 C22.69312167 8.49000096 24.26131892 9.16732702 25.82958984 9.84448242 C29.79483273 11.55897777 33.75668499 13.28115803 37.71728516 15.00634766 C39.90052772 15.9567003 42.08485423 16.9045129 44.26953125 17.8515625 C48.05901426 19.49543963 51.84265777 21.15225628 55.625 22.8125 C56.76727051 23.30919189 57.90954102 23.80588379 59.08642578 24.31762695 C60.64079346 25.00538208 60.64079346 25.00538208 62.2265625 25.70703125 C63.12971191 26.1038208 64.03286133 26.50061035 64.96337891 26.90942383 C67 28 67 28 68 30 C67.08339074 32.4912426 66.09702485 34.86737331 65.01171875 37.28515625 C64.51714928 38.41183716 64.51714928 38.41183716 64.0125885 39.5612793 C62.91150644 42.06496527 61.79944744 44.56362289 60.6875 47.0625 C59.91297551 48.81859339 59.13922447 50.57502809 58.36621094 52.33178711 C56.74147324 56.02115246 55.11244389 59.70857797 53.47998047 63.39453125 C49.93039544 71.41179625 46.40988114 79.44180918 42.8873291 87.47097778 C41.74437194 90.07532411 40.60035299 92.67920168 39.45605469 95.28295898 C34.568293 106.40701442 29.71511482 117.54525675 24.89257812 128.69775391 C20.52983081 138.78558837 16.14348826 148.86301812 11.75 158.9375 C11.21329178 160.16826263 11.21329178 160.16826263 10.66574097 161.42388916 C8.84050264 165.60933623 7.01503529 169.79468336 5.18945312 173.97998047 C1.97779907 181.34326312 -1.23180347 188.70743996 -4.44152832 196.07156372 C-6.21093176 200.13108046 -7.98047296 204.19053714 -9.75 208.25 C-10.45833399 209.87499971 -11.16666732 211.49999971 -11.875 213.125 C-33.12499999 261.87499998 -33.12499999 261.87499998 -34.18751526 264.31253052 C-34.89580211 265.93742688 -35.60408458 267.56232516 -36.31236267 269.18722534 C-38.08387118 273.25132666 -39.85545599 277.31539468 -41.62719727 281.37939453 C-44.80670035 288.67270336 -47.98568773 295.96623441 -51.16177368 303.2610321 C-58.83024951 320.8737257 -66.5202832 338.47658787 -74.25 356.0625 C-79.9039563 368.92608078 -85.53045872 381.80058595 -91.10742188 394.69775391 C-95.47016919 404.78558837 -99.85651174 414.86301812 -104.25 424.9375 C-104.78670822 426.16826263 -104.78670822 426.16826263 -105.33425903 427.42388916 C-107.15949736 431.60933623 -108.98496471 435.79468336 -110.81054688 439.97998047 C-114.02220093 447.34326312 -117.23180347 454.70743996 -120.44152832 462.07156372 C-122.21093176 466.13108046 -123.98047296 470.19053714 -125.75 474.25 C-126.45833399 475.87499971 -127.16666732 477.49999971 -127.875 479.125 C-132.12499999 488.87499998 -132.12499999 488.87499998 -133.18746948 491.31242371 C-133.89591068 492.93767534 -134.60434574 494.56292966 -135.31277466 496.18818665 C-137.08190741 500.24685853 -138.85114627 504.3054841 -140.62060547 508.36401367 C-143.82843417 515.72195288 -147.0354491 523.08024173 -150.23857117 530.44023132 C-159.7617583 552.32194775 -169.34359102 574.17672864 -179 596 C-187.68693674 593.36671157 -195.85552353 589.63687735 -204.125 585.9375 C-207.16597921 584.58308816 -210.20799003 583.23100107 -213.25 581.87890625 C-214.37476242 581.37822632 -214.37476242 581.37822632 -215.52224731 580.86743164 C-220.02223855 578.86724409 -224.5340264 576.89970115 -229.0625 574.96484375 C-230.10003418 574.52084229 -231.13756836 574.07684082 -232.20654297 573.61938477 C-234.08354853 572.81905874 -235.96262768 572.02356939 -237.84423828 571.23413086 C-238.68196777 570.87585205 -239.51969727 570.51757324 -240.3828125 570.1484375 C-241.08809082 569.85114746 -241.79336914 569.55385742 -242.52001953 569.24755859 C-244.68183919 568.16005136 -246.63086429 566.98136777 -248.66303253 565.67552662 C-252.62634642 563.18585933 -256.68062656 561.02160752 -260.87145996 558.9440155 C-261.99652285 558.38020242 -261.99652285 558.38020242 -263.14431429 557.80499917 C-265.63274104 556.55915191 -268.12396359 555.31900651 -270.61523438 554.07885742 C-272.40966697 553.18192348 -274.20392303 552.2846363 -275.99801636 551.38702393 C-280.85097525 548.96025837 -285.70637929 546.53842293 -290.56224632 544.1174829 C-295.64323361 541.58325385 -300.72194553 539.04447309 -305.80090332 536.50617981 C-315.410929 531.70427114 -325.02298612 526.90644362 -334.63578463 522.11008865 C-345.58293048 516.64770528 -356.52779655 511.18076144 -367.47247601 505.71343839 C-389.97912237 494.47055888 -412.48861747 483.23339304 -435 472 C-433.61486651 467.73670018 -432.03192522 463.81988468 -430.01904297 459.81103516 C-429.57969421 458.93189957 -429.57969421 458.93189957 -429.13146973 458.03500366 C-428.17216012 456.11776651 -427.20723199 454.20341846 -426.2421875 452.2890625 C-425.57208847 450.95259857 -424.90234484 449.61595639 -424.23294067 448.27914429 C-422.47743679 444.77574151 -420.71713975 441.27476891 -418.95581055 437.77429199 C-417.15642357 434.19604414 -415.36161201 430.6155031 -413.56640625 427.03515625 C-410.04872769 420.02119372 -406.52597869 413.00979363 -403 406 C-398.27565563 407.44353569 -393.93911143 409.39229233 -389.54109192 411.61256409 C-388.81120975 411.97700353 -388.08132758 412.34144297 -387.32932776 412.71692604 C-384.89317214 413.93452895 -382.45991728 415.15781691 -380.02661133 416.38110352 C-378.27709663 417.25696187 -376.52740229 418.13246147 -374.77754211 419.00762939 C-371.01466825 420.89053151 -367.25306966 422.77594933 -363.49244118 424.66333199 C-357.54928428 427.64604713 -351.60329461 430.62308383 -345.65690613 433.59934998 C-336.25621859 438.30538172 -326.85740851 443.01514921 -317.45940942 447.72654718 C-300.61716787 456.16984671 -283.77267828 464.60865697 -266.92610949 473.04331917 C-261.01165375 476.00475743 -255.098329 478.96843883 -249.18589556 481.9339124 C-245.51420837 483.77506661 -241.84171652 485.61461134 -238.1690197 487.45375061 C-236.46222036 488.30888963 -234.75577027 489.16472614 -233.04969025 490.02129936 C-230.72669168 491.1875047 -228.4024839 492.35126396 -226.07795715 493.51441956 C-225.3981996 493.85643687 -224.71844205 494.19845419 -224.01808578 494.55083567 C-221.36654285 495.87499305 -218.81655734 497.06114755 -216 498 C-215.83025162 497.46052734 -215.66050323 496.92105469 -215.48561096 496.36523438 C-213.62074447 490.58948308 -211.40712227 485.05318868 -208.96484375 479.5 C-208.57406647 478.60309448 -208.18328918 477.70618896 -207.78067017 476.78210449 C-206.50334767 473.85308974 -205.22048941 470.92653636 -203.9375 468 C-203.03932563 465.94349323 -202.14146221 463.88685062 -201.24389648 461.83007812 C-198.50187679 455.55077517 -195.75216359 449.27486263 -193 443 C-192.37309265 441.57059082 -192.37309265 441.57059082 -191.73352051 440.11230469 C-188.25982603 432.19340306 -184.78306104 424.27585231 -181.30273438 416.35986328 C-176.46516272 405.3545807 -171.66318634 394.33468625 -166.8918457 383.30053711 C-162.52932877 373.21327828 -158.14324051 363.13641378 -153.75 353.0625 C-153.21329178 351.83173737 -153.21329178 351.83173737 -152.66574097 350.57611084 C-150.84050264 346.39066377 -149.01503529 342.20531664 -147.18945312 338.02001953 C-143.97779907 330.65673688 -140.76819653 323.29256004 -137.55847168 315.92843628 C-135.78906824 311.86891954 -134.01952704 307.80946286 -132.25 303.75 C-131.54166601 302.12500029 -130.83333268 300.50000029 -130.125 298.875 C-125.87499997 289.12499993 -125.87499997 289.12499993 -124.81248474 286.68746948 C-124.10419789 285.06257312 -123.39591542 283.43767484 -122.68763733 281.81277466 C-120.91612882 277.74867334 -119.14454401 273.68460532 -117.37280273 269.62060547 C-114.19329965 262.32729664 -111.01431227 255.03376559 -107.83822632 247.7389679 C-100.16975049 230.1262743 -92.4797168 212.52341213 -84.75 194.9375 C-79.0960437 182.07391922 -73.46954128 169.19941405 -67.89257812 156.30224609 C-63.52983081 146.21441163 -59.14348826 136.13698188 -54.75 126.0625 C-54.21329178 124.83173737 -54.21329178 124.83173737 -53.66574097 123.57611084 C-51.84050264 119.39066377 -50.01503529 115.20531664 -48.18945312 111.02001953 C-46.03705525 106.08526825 -43.8855597 101.15012399 -41.734375 96.21484375 C-41.20957802 95.01086441 -41.20957802 95.01086441 -40.67417908 93.78256226 C-38.91163898 89.73888926 -37.14923688 85.69515616 -35.38696289 81.65136719 C-32.15487653 74.23525659 -28.92180604 66.81958157 -25.68443298 59.40577698 C-17.05093705 39.63425373 -8.45959816 19.84665927 0 0 Z " fill="#00EB00" transform="translate(777,96)"/>
</svg>
